PathFileType	3	(X/Y/Z)	D:\minhoCalibration\240510\subject3_KPNP\preferred\preferred01.trc
DataRate	CameraRate	NumFrames	NumMarkers	Units	OrigDataRate	OrigDataStartFrame	OrigNumFrames
200.0	200.0	33	10	mm	200.0	310	136	
Frame#	Time	Left_Ankle_Outer1			Left_Ankle_Inner1			Left_Knee_Outer1			Left_Knee_Inner1			Left_Wrist1			Right_Wrist1			Right_Knee_Inner1			Right_Knee_Outer1			Right_Ankle_Inner1			Right_Ankle_Outer1			
		X1	Y1	Z1	X2	Y2	Z2	X3	Y3	Z3	X4	Y4	Z4	X5	Y5	Z5	X6	Y6	Z6	X7	Y7	Z7	X8	Y8	Z8	X9	Y9	Z9	X10	Y10	Z10	
310	1.54	-299.89355	123.34168	-561.85394	-354.06543	139.52003	-549.4621	-164.51918	525.70782	-430.41934	-248.5927	531.60297	-375.56619	-133.06868	920.99628	-588.50391	-435.38736	1073.5876	-424.73416	-291.35263	900.31598	-75.576698	-386.92917	950.26709	-86.265656	-301.32907	748.35931	309.64655	-394.9375	799.14435	325.47678
311	1.545	-298.55099	122.58491	-562.89087	-353.17694	138.50484	-550.83221	-164.85956	525.25366	-431.66791	-248.88879	531.28607	-376.04724	-131.84422	922.34436	-586.48309	-438.38849	1069.0259	-424.12485	-292.57214	892.25659	-76.836784	-389.73422	941.56958	-86.490822	-305.98386	726.34204	302.56161	-401.04312	774.61646	319.3226
312	1.55	-298.15192	120.85052	-563.33154	-352.12891	137.16983	-552.32806	-165.18777	524.77887	-432.83344	-248.8788	530.13702	-378.03323	-131.02417	923.40747	-584.15857	-441.46298	1064.0441	-423.68222	-293.77148	883.92603	-78.222366	-391.76135	933.06396	-87.197029	-311.29977	703.49585	294.36838	-407.50571	749.60443	312.20752
313	1.555	-297.01898	119.46048	-564.37921	-351.12448	135.82913	-554.04358	-165.78412	524.41644	-433.67563	-249.84872	529.35931	-379.45651	-130.09055	924.37402	-581.74243	-444.62457	1058.7794	-423.25836	-294.34436	875.42267	-80.308769	-394.16803	925.19019	-87.589561	-317.50458	680.11334	284.94818	-414.6893	724.57471	304.08115
314	1.56	-295.35297	118.30212	-565.69073	-350.07043	134.27182	-555.88031	-166.47997	523.94397	-434.3869	-251.31592	529.07501	-381.30469	-129.02403	925.17914	-579.29578	-447.58087	1053.3795	-423.2243	-295.43146	866.71094	-81.724426	-395.91061	916.93835	-88.307236	-322.92722	655.96643	274.20129	-420.93243	698.64514	294.19971
315	1.565	-294.74829	116.59075	-566.52301	-349.21344	132.80977	-557.7478	-167.50206	523.33899	-434.83157	-253.71014	527.93042	-382.55692	-128.08781	925.72229	-576.83093	-449.60214	1047.818	-423.9603	-296.72095	858.02368	-82.984413	-397.85321	908.90735	-88.789116	-328.98486	631.84253	262.59039	-427.75375	672.84363	283.35742
316	1.57	-293.53137	115.22556	-567.7655	-348.37613	131.04585	-559.67102	-168.64897	522.60901	-435.19659	-256.03079	526.78046	-384.78885	-127.44932	926.12781	-574.29608	-452.10086	1042.1949	-424.6243	-298.20944	849.01978	-84.140213	-399.64633	900.3869	-89.396469	-334.61826	607.12561	249.50372	-434.14511	646.30585	270.71045
317	1.575	-292.77115	113.86859	-568.80237	-347.85007	129.51747	-561.47681	-170.11761	521.75769	-435.40118	-258.72974	525.58905	-386.99136	-126.68733	926.14825	-571.8725	-454.01138	1036.7612	-426.14474	-299.67889	839.72247	-85.623436	-400.86819	891.11298	-90.405563	-340.89026	583.70715	236.43835	-441.26328	621.18433	257.63205
318	1.58	-292.46194	112.32149	-569.67419	-347.5928	127.72286	-563.08368	-171.62057	520.69287	-435.55875	-261.5928	524.07037	-389.48184	-125.46256	926.29126	-569.68951	-455.69022	1031.8269	-427.98886	-301.7915	830.27045	-87.288216	-402.61078	881.22797	-91.276665	-348.11307	560.79761	223.74081	-449.63324	596.07568	245.47752
319	1.585	-292.35568	110.98229	-570.54205	-347.65982	126.10159	-564.53986	-173.25441	519.39075	-435.68747	-264.45563	522.73462	-391.7843	-124.95308	926.16492	-567.35944	-457.32809	1027.9625	-429.53683	-302.95624	820.60504	-89.224884	-404.29871	870.81683	-92.600166	-353.04938	536.70306	207.32327	-455.52881	570.14569	227.83864
320	1.59	-292.58246	109.62706	-571.30103	-347.92615	124.55712	-565.90192	-174.92964	518.05682	-435.75	-267.55511	521.13214	-394.03894	-124.44849	925.55396	-565.26917	-459.0618	1024.6044	-431.10538	-304.75012	810.4436	-91.335472	-406.18936	860.02936	-94.419258	-358.77805	512.75256	190.26793	-462.28244	544.10291	209.87016
321	1.595	-293.6463	108.10971	-571.69592	-348.42615	122.64214	-566.71039	-176.66988	516.48926	-435.72742	-270.46744	519.68097	-396.13257	-123.85081	924.82111	-563.27814	-460.75375	1021.627	-432.43036	-306.55725	799.95612	-93.904213	-408.26312	849.12488	-96.710403	-365.04266	490.35181	173.68237	-469.56662	519.76837	192.44693
322	1.6	-294.70447	106.8632	-572.34131	-349.53513	121.12756	-567.61804	-178.52943	515.03149	-435.61655	-273.802	517.86951	-398.23288	-123.58253	923.95746	-561.34601	-462.4588	1018.8405	-433.73642	-308.47351	788.92883	-96.601578	-410.33203	838.11182	-99.535538	-371.27164	468.28522	156.19952	-476.69037	495.91116	173.87038
323	1.605	-295.72922	105.81074	-573.16656	-350.92844	119.76367	-568.31476	-180.22813	513.67993	-435.33752	-275.77051	516.76752	-400.63574	-123.24694	923.04694	-559.48743	-463.89426	1016.0118	-435.05933	-310.50485	777.53937	-99.65081	-412.41895	827.10126	-102.64798	-383.50928	442.8584	144.48145	-483.6022	472.54144	154.18875
324	1.61	-297.25235	104.6445	-573.66235	-352.35913	118.37498	-568.86609	-182.33887	512.23315	-435.15176	-278.75949	515.72113	-401.70316	-123.68308	921.59772	-557.40991	-464.95181	1012.8663	-436.76846	-313.70523	765.09143	-102.02654	-414.26886	816.01941	-106.03476	-389.96866	420.89224	125.25926	-490.26221	449.02704	132.40013
325	1.615	-299.27432	103.31975	-573.89227	-354.16675	117.02272	-569.44452	-184.09917	511.10388	-434.64386	-281.25778	514.72626	-403.13876	-122.81809	920.59485	-555.92798	-466.44254	1010.4419	-437.54349	-315.66617	752.88702	-105.79765	-415.60049	804.54364	-109.394	-395.93121	399.62326	105.10938	-496.9686	427.94522	111.95949
326	1.62	-300.58603	102.35364	-574.72089	-355.83691	115.68176	-569.94904	-185.91171	510.01859	-434.50604	-283.53049	514.0304	-404.37961	-122.69672	919.42188	-554.14954	-467.539	1007.4499	-438.77942	-317.57922	740.63727	-110.18488	-417.21466	793.39069	-113.05783	-401.99561	378.80771	84.173431	-503.987	406.89667	90.316261
327	1.625	-302.56717	101.11729	-575.19635	-357.66122	114.6208	-570.60712	-187.65231	508.95615	-434.18896	-285.3963	512.83075	-406.29608	-122.7376	918.0647	-552.3775	-468.68494	1004.5068	-439.91553	-319.34064	728.26123	-114.93961	-418.39807	781.97748	-117.32253	-404.65649	359.42697	60.196705	-510.15555	386.40494	67.445366
328	1.63	-304.55811	99.843399	-575.56891	-359.58759	113.35131	-571.12299	-188.83804	508.13562	-433.93372	-287.58365	512.18707	-406.6228	-122.928	916.80621	-550.69781	-469.63385	1001.2997	-441.14856	-321.19714	715.59576	-120.00737	-419.38678	770.6571	-121.91463	-411.47623	339.92831	38.308105	-516.03192	367.42987	44.195862
329	1.635	-306.09692	98.555992	-576.18597	-360.59955	111.96503	-572.4433	-190.1711	507.15637	-434.00101	-289.30716	511.08438	-407.71207	-122.81328	915.70105	-549.13257	-470.64148	998.28558	-442.12369	-323.09525	702.91681	-125.48679	-420.66464	759.60846	-126.44296	-416.81165	321.49438	14.744611	-521.25507	348.41055	18.274464
330	1.64	-307.0173	97.543861	-577.12299	-362.58447	110.46913	-572.31818	-191.56908	506.09738	-434.26538	-290.44604	510.07599	-408.67856	-123.13761	914.3811	-547.43292	-471.48718	995.0437	-443.02835	-325.02148	690.3573	-131.64322	-422.07346	748.5481	-131.23276	-421.366	304.12482	-9.6899614	-526.47101	331.42975	-5.0467439
331	1.645	-308.07101	96.12738	-577.79553	-363.6676	108.80826	-573.10364	-193.20197	504.58032	-434.67371	-291.52396	508.87985	-409.56799	-123.50513	913.10474	-545.62482	-472.60168	992.3512	-443.93762	-327.05246	677.98419	-138.54309	-423.94107	737.28381	-136.18259	-426.25262	287.26276	-34.780064	-531.78058	314.83517	-28.851517
332	1.65	-308.92618	94.580627	-578.48816	-364.61322	107.2935	-573.89471	-194.31349	503.44812	-435.66833	-292.64206	507.66498	-410.22836	-123.91021	911.85803	-543.90338	-473.61581	989.53796	-444.65289	-329.00171	666.08862	-146.03903	-425.39612	726.17987	-141.67863	-430.74301	271.23141	-60.704063	-536.33423	298.60547	-56.297783
333	1.655	-309.87155	92.748558	-578.95349	-365.08133	105.43243	-574.83508	-195.34402	502.09003	-436.56232	-293.35419	505.78296	-411.65979	-124.04485	910.81427	-542.19812	-474.50784	986.62524	-445.38861	-331.0528	654.58203	-153.93759	-427.59558	714.88025	-147.36606	-434.90662	256.33734	-87.010841	-540.5918	284.19281	-80.14608
334	1.66	-308.81693	92.051575	-580.42273	-365.3876	103.78486	-575.79675	-196.4155	500.62906	-437.42892	-294.63977	504.47058	-411.74377	-124.58188	909.63739	-540.4585	-475.36298	983.70264	-446.06271	-333.15863	643.16699	-162.01886	-430.423	703.5144	-153.20184	-439.25378	242.49655	-113.44521	-543.94427	270.33423	-108.5469
335	1.665	-309.73663	89.847694	-580.69067	-365.47928	102.17001	-576.82581	-197.25781	499.31418	-438.42435	-294.73831	503.11618	-413.08826	-124.70226	908.58868	-538.95325	-476.2146	980.7265	-446.73224	-335.46747	631.85394	-170.2274	-433.57434	692.29791	-159.56993	-442.45773	229.41965	-140.65857	-547.56311	257.50653	-132.50909
336	1.67	-310.1554	88.031593	-580.96454	-365.33636	100.55055	-577.80713	-198.15694	497.81198	-439.24237	-295.64612	501.6055	-413.7399	-124.83199	907.57098	-537.49652	-477.03632	977.73871	-447.39014	-338.05786	620.57916	-178.60681	-437.81052	680.86945	-165.93733	-444.23062	218.33095	-168.08337	-550.46753	245.64656	-158.06017
337	1.675	-309.59988	86.880371	-581.73218	-365.22678	99.129456	-578.68866	-198.69717	496.52011	-440.07715	-296.57892	499.96869	-414.7243	-124.70148	906.81061	-536.05011	-477.82339	974.75946	-448.12631	-340.74084	609.4549	-187.15878	-441.74362	669.41693	-173.18034	-446.28177	207.55954	-195.42725	-552.5932	234.4373	-187.70958
338	1.68	-309.47495	85.571991	-582.10382	-365.14624	97.91687	-579.57904	-199.33925	495.27158	-440.69485	-297.54376	498.34717	-416.76526	-124.8477	905.79761	-534.78278	-478.7095	971.79767	-448.97739	-343.5907	598.52521	-195.85692	-446.15936	657.98773	-180.59772	-448.6709	198.76874	-222.21986	-554.36847	224.11058	-212.62106
339	1.685	-309.64838	84.248589	-582.32971	-365.04047	96.877502	-580.24988	-199.84537	494.11057	-441.13016	-297.36734	497.85468	-417.11093	-125.07007	904.82422	-533.51581	-479.62936	968.84979	-449.8046	-346.61514	587.88275	-204.61395	-450.45279	646.71851	-188.41962	-449.53989	190.47067	-249.23421	-556.14221	214.51035	-240.27524
340	1.69	-309.09805	83.50428	-582.94867	-364.8956	95.769989	-580.82178	-200.38393	492.99222	-441.33426	-298.60376	495.83588	-418.72101	-124.87247	904.06317	-532.47107	-480.65686	966.4176	-450.00339	-349.27423	577.78931	-213.25566	-454.89825	635.59589	-196.49797	-449.1116	183.1862	-276.00671	-556.88763	206.48985	-267.42575
341	1.695	-309.15039	82.73024	-583.1687	-364.91656	95.104553	-581.22803	-200.741	492.12683	-441.4606	-298.69345	495.0126	-419.27762	-124.80448	903.24182	-531.51416	-481.62747	962.95239	-451.89905	-353.08765	567.92413	-222.3737	-459.06265	624.56372	-205.14557	-448.48944	176.36024	-302.0621	-557.42291	198.86246	-293.88397
342	1.7	-309.61508	81.881874	-583.09753	-364.93756	94.449448	-581.56384	-200.92914	491.48132	-441.50705	-299.43097	494.10654	-419.92337	-124.95416	902.61438	-530.45538	-482.57352	959.94116	-453.14404	-356.52078	558.29877	-231.68388	-462.78418	614.38965	-214.14091	-448.07654	170.68597	-327.621	-557.82996	192.22893	-320.95758
